<svg width="32" height="33" viewBox="0 0 32 33" fill="none" xmlns="http://www.w3.org/2000/svg">
<path d="M16 3.4876C20.2723 3.4876 20.7783 3.50356 22.4656 3.5804C24.0257 3.65137 24.8729 3.911 25.4366 4.12966C26.1838 4.41929 26.7166 4.76457 27.2765 5.32289C27.8363 5.88121 28.1833 6.4126 28.4731 7.15754C28.6924 7.71969 28.9528 8.56445 29.0239 10.1202C29.1009 11.8027 29.117 12.3071 29.117 16.5674C29.117 20.8277 29.101 21.3321 29.0239 23.0146C28.9528 24.5703 28.6924 25.4151 28.4731 25.9772C28.1827 26.7223 27.8364 27.2536 27.2765 27.8119C26.7166 28.3701 26.1837 28.7161 25.4366 29.0051C24.8729 29.2238 24.0257 29.4834 22.4656 29.5544C20.7784 29.6311 20.2724 29.6472 16 29.6472C11.7276 29.6472 11.2218 29.6312 9.53456 29.5544C7.9744 29.4834 7.12724 29.2238 6.56349 29.0051C5.81631 28.7153 5.28354 28.3701 4.72363 27.8119C4.16385 27.2536 3.81682 26.7222 3.52701 25.9772C3.3076 25.4151 3.04736 24.5703 2.97619 23.0146C2.89926 21.3322 2.88313 20.8276 2.88313 16.5674C2.88313 12.3073 2.89913 11.8028 2.97619 10.1202C3.04736 8.56445 3.30773 7.71969 3.52701 7.15754C3.81746 6.41248 4.16372 5.88121 4.72363 5.32289C5.28354 4.7647 5.81644 4.41865 6.56349 4.12966C7.12724 3.911 7.9744 3.65137 9.53456 3.5804C11.2217 3.50433 11.7277 3.4876 16 3.4876ZM16 0.613281C11.6546 0.613281 11.1096 0.63179 9.4031 0.709143C7.69982 0.786496 6.53712 1.05647 5.51946 1.45089C4.4671 1.85885 3.57514 2.4044 2.68561 3.29129C1.79621 4.17829 1.24859 5.06773 0.83999 6.1171C0.444316 7.13201 0.173707 8.29193 0.0961342 9.98974C0.0185612 11.6915 0 12.235 0 16.568C0 20.9009 0.0185612 21.4445 0.0961342 23.1462C0.173707 24.8446 0.444444 26.004 0.83999 27.0188C1.2491 28.0682 1.79621 28.9576 2.68561 29.8446C3.57514 30.7316 4.46774 31.2771 5.51946 31.685C6.53725 32.0796 7.70046 32.3494 9.4031 32.4268C11.1096 32.5041 11.6546 32.5226 16 32.5226C20.3454 32.5226 20.8904 32.5041 22.5969 32.4268C24.3002 32.3494 25.4629 32.0794 26.4805 31.685C27.5329 31.2769 28.4249 30.7315 29.3144 29.8446C30.2039 28.9576 30.7509 28.0675 31.16 27.0188C31.5557 26.004 31.8263 24.844 31.9039 23.1462C31.9814 21.4445 32 20.901 32 16.568C32 12.2349 31.9814 11.6914 31.9039 9.98974C31.8263 8.29129 31.5556 7.13189 31.16 6.1171C30.7508 5.06773 30.2038 4.17829 29.3144 3.29129C28.4249 2.4044 27.5323 1.85885 26.4805 1.45089C25.4629 1.05634 24.2995 0.786496 22.5969 0.709143C20.8906 0.63179 20.3454 0.613281 16 0.613281ZM16 8.37515C11.4622 8.37515 7.78392 12.043 7.78392 16.568C7.78392 21.0929 11.4622 24.7609 16 24.7609C20.5378 24.7609 24.2162 21.0929 24.2162 16.568C24.2162 12.043 20.5378 8.37515 16 8.37515ZM16 21.8866C13.0547 21.8866 10.6664 19.5058 10.6664 16.5681C10.6664 13.6303 13.0547 11.2496 16 11.2496C18.9453 11.2496 21.3336 13.6303 21.3336 16.5681C21.3336 19.5058 18.9453 21.8866 16 21.8866ZM24.5407 6.13702C23.48 6.13702 22.6207 6.9939 22.6207 8.05157C22.6207 9.10924 23.48 9.96626 24.5407 9.96626C25.6014 9.96626 26.4608 9.10924 26.4608 8.05157C26.4608 6.9939 25.6015 6.13702 24.5407 6.13702Z" fill="black"/>
</svg>
